<?xml version="1.0" standalone="no"?>
<!DOCTYPE svg PUBLIC "-//W3C//DTD SVG 20010904//EN"
 "http://www.w3.org/TR/2001/REC-SVG-20010904/DTD/svg10.dtd">
<svg version="1.0" xmlns="http://www.w3.org/2000/svg"
 width="512.000000pt" height="512.000000pt" viewBox="0 0 512.000000 512.000000"
 preserveAspectRatio="xMidYMid meet">
<metadata>
Created by potrace 1.11, written by Peter Selinger 2001-2013
</metadata>
<g transform="translate(0.000000,512.000000) scale(0.100000,-0.100000)"
fill="#000000" stroke="none">
<path d="M2253 5104 c-495 -62 -935 -246 -1319 -550 -122 -96 -202 -172 -288
-270 -76 -87 -262 -339 -290 -391 -21 -42 -20 -91 2 -127 17 -29 17 -30 -20
-102 -128 -244 -234 -577 -263 -829 -3 -27 -8 -67 -11 -89 -10 -64 -11 -345
-3 -441 47 -525 234 -987 559 -1383 306 -375 697 -644 1154 -797 141 -47 375
-98 521 -113 90 -10 489 -8 555 3 352 55 573 121 823 247 558 279 999 762
1222 1338 44 114 107 326 121 410 2 14 6 34 9 46 2 11 7 45 11 75 3 30 8 57
10 60 5 10 18 228 18 319 0 87 -11 257 -20 320 -44 302 -133 584 -259 825 -40
75 -42 81 -27 103 18 27 23 99 9 127 -18 36 -148 218 -225 315 -369 467 -990
810 -1617 895 -22 2 -69 9 -105 14 -96 13 -450 10 -567 -5z m517 -1753 c184
-46 372 -167 477 -309 16 -20 30 -39 33 -42 3 -3 11 -16 19 -30 96 -167 127
-277 130 -453 8 -428 -282 -782 -714 -873 -16 -3 -78 -7 -137 -9 -190 -4 -355
45 -518 155 -100 68 -208 189 -268 301 -27 49 -79 182 -80 202 0 4 -3 20 -6
35 -4 15 -9 38 -11 52 -6 30 -6 203 0 246 44 315 267 590 565 697 161 59 345
69 510 28z"/>
</g>
</svg>
